<svg id="visual" viewBox="0 0 900 600" width="900" height="600" xmlns="http://www.w3.org/2000/svg" xmlns:xlink="http://www.w3.org/1999/xlink" version="1.1"><path d="M0 115L21.5 108.3C43 101.7 86 88.3 128.8 82.5C171.7 76.7 214.3 78.3 257.2 84.5C300 90.7 343 101.3 385.8 103.3C428.7 105.3 471.3 98.7 514.2 91.8C557 85 600 78 642.8 79.3C685.7 80.7 728.3 90.3 771.2 93.5C814 96.7 857 93.3 878.5 91.7L900 90L900 0L878.5 0C857 0 814 0 771.2 0C728.3 0 685.7 0 642.8 0C600 0 557 0 514.2 0C471.3 0 428.7 0 385.8 0C343 0 300 0 257.2 0C214.3 0 171.7 0 128.8 0C86 0 43 0 21.5 0L0 0Z" fill="#013437" stroke-linecap="round" stroke-linejoin="miter"></path></svg>