<svg id="visual" viewBox="0 0 900 600" width="900" height="600" xmlns="http://www.w3.org/2000/svg" xmlns:xlink="http://www.w3.org/1999/xlink" version="1.1"><g stroke-width="1" stroke-linejoin="bevel"><path d="M417 315L434 392L508 338Z" fill="#bbed24" stroke="#bbed24"></path><path d="M434 392L517 370L508 338Z" fill="#7ac73d" stroke="#7ac73d"></path><path d="M434 392L484 478L517 370Z" fill="#99db33" stroke="#99db33"></path><path d="M484 478L576 422L517 370Z" fill="#99db33" stroke="#99db33"></path><path d="M517 370L621 300L508 338Z" fill="#076440" stroke="#076440"></path><path d="M621 300L501 209L508 338Z" fill="#99db33" stroke="#99db33"></path><path d="M508 338L501 209L417 315Z" fill="#076440" stroke="#076440"></path><path d="M417 315L333 426L434 392Z" fill="#e0ff00" stroke="#e0ff00"></path><path d="M434 392L382 533L484 478Z" fill="#7ac73d" stroke="#7ac73d"></path><path d="M576 422L621 300L517 370Z" fill="#063e30" stroke="#063e30"></path><path d="M501 209L411 164L417 315Z" fill="#44a046" stroke="#44a046"></path><path d="M417 315L260 280L333 426Z" fill="#2d8c47" stroke="#2d8c47"></path><path d="M333 426L382 533L434 392Z" fill="#187845" stroke="#187845"></path><path d="M411 164L288 230L417 315Z" fill="#5eb443" stroke="#5eb443"></path><path d="M333 426L317 500L382 533Z" fill="#025139" stroke="#025139"></path><path d="M226 425L317 500L333 426Z" fill="#bbed24" stroke="#bbed24"></path><path d="M288 230L260 280L417 315Z" fill="#187845" stroke="#187845"></path><path d="M621 300L581 168L501 209Z" fill="#7ac73d" stroke="#7ac73d"></path><path d="M501 209L489 102L411 164Z" fill="#5eb443" stroke="#5eb443"></path><path d="M484 478L607 509L576 422Z" fill="#2d8c47" stroke="#2d8c47"></path><path d="M718 436L721 294L621 300Z" fill="#076440" stroke="#076440"></path><path d="M497 600L607 509L484 478Z" fill="#076440" stroke="#076440"></path><path d="M288 230L219 295L260 280Z" fill="#076440" stroke="#076440"></path><path d="M260 280L226 425L333 426Z" fill="#44a046" stroke="#44a046"></path><path d="M219 295L226 425L260 280Z" fill="#7ac73d" stroke="#7ac73d"></path><path d="M581 168L489 102L501 209Z" fill="#5eb443" stroke="#5eb443"></path><path d="M411 164L313 80L288 230Z" fill="#187845" stroke="#187845"></path><path d="M621 300L662 203L581 168Z" fill="#2d8c47" stroke="#2d8c47"></path><path d="M581 168L579 61L489 102Z" fill="#bbed24" stroke="#bbed24"></path><path d="M721 294L662 203L621 300Z" fill="#187845" stroke="#187845"></path><path d="M279 600L424 600L382 533Z" fill="#44a046" stroke="#44a046"></path><path d="M382 533L424 600L484 478Z" fill="#063e30" stroke="#063e30"></path><path d="M279 600L382 533L317 500Z" fill="#44a046" stroke="#44a046"></path><path d="M424 600L497 600L484 478Z" fill="#bbed24" stroke="#bbed24"></path><path d="M706 600L676 496L607 509Z" fill="#025139" stroke="#025139"></path><path d="M607 509L676 496L576 422Z" fill="#44a046" stroke="#44a046"></path><path d="M718 436L621 300L576 422Z" fill="#99db33" stroke="#99db33"></path><path d="M676 496L718 436L576 422Z" fill="#7ac73d" stroke="#7ac73d"></path><path d="M471 0L428 64L489 102Z" fill="#5eb443" stroke="#5eb443"></path><path d="M489 102L428 64L411 164Z" fill="#44a046" stroke="#44a046"></path><path d="M163 170L133 317L219 295Z" fill="#076440" stroke="#076440"></path><path d="M497 600L588 600L607 509Z" fill="#44a046" stroke="#44a046"></path><path d="M428 64L313 80L411 164Z" fill="#025139" stroke="#025139"></path><path d="M130 476L187 496L226 425Z" fill="#076440" stroke="#076440"></path><path d="M226 425L187 496L317 500Z" fill="#5eb443" stroke="#5eb443"></path><path d="M187 496L279 600L317 500Z" fill="#e0ff00" stroke="#e0ff00"></path><path d="M732 100L579 61L581 168Z" fill="#063e30" stroke="#063e30"></path><path d="M732 100L581 168L662 203Z" fill="#bbed24" stroke="#bbed24"></path><path d="M163 170L219 295L288 230Z" fill="#2d8c47" stroke="#2d8c47"></path><path d="M219 295L133 317L226 425Z" fill="#44a046" stroke="#44a046"></path><path d="M822 408L778 267L721 294Z" fill="#e0ff00" stroke="#e0ff00"></path><path d="M721 294L770 184L662 203Z" fill="#e0ff00" stroke="#e0ff00"></path><path d="M676 496L765 491L718 436Z" fill="#e0ff00" stroke="#e0ff00"></path><path d="M718 436L822 408L721 294Z" fill="#2d8c47" stroke="#2d8c47"></path><path d="M706 600L765 491L676 496Z" fill="#5eb443" stroke="#5eb443"></path><path d="M224 91L163 170L288 230Z" fill="#44a046" stroke="#44a046"></path><path d="M290 0L224 91L313 80Z" fill="#44a046" stroke="#44a046"></path><path d="M313 80L224 91L288 230Z" fill="#5eb443" stroke="#5eb443"></path><path d="M579 61L471 0L489 102Z" fill="#187845" stroke="#187845"></path><path d="M428 64L428 0L313 80Z" fill="#44a046" stroke="#44a046"></path><path d="M471 0L428 0L428 64Z" fill="#bbed24" stroke="#bbed24"></path><path d="M80 383L130 476L226 425Z" fill="#187845" stroke="#187845"></path><path d="M187 496L209 600L279 600Z" fill="#bbed24" stroke="#bbed24"></path><path d="M778 267L770 184L721 294Z" fill="#2d8c47" stroke="#2d8c47"></path><path d="M111 600L209 600L187 496Z" fill="#025139" stroke="#025139"></path><path d="M588 600L706 600L607 509Z" fill="#187845" stroke="#187845"></path><path d="M579 61L572 0L471 0Z" fill="#076440" stroke="#076440"></path><path d="M662 0L572 0L579 61Z" fill="#076440" stroke="#076440"></path><path d="M770 184L732 100L662 203Z" fill="#2d8c47" stroke="#2d8c47"></path><path d="M765 491L822 408L718 436Z" fill="#44a046" stroke="#44a046"></path><path d="M900 191L807 125L770 184Z" fill="#187845" stroke="#187845"></path><path d="M900 367L822 408L900 466Z" fill="#063e30" stroke="#063e30"></path><path d="M133 317L80 383L226 425Z" fill="#187845" stroke="#187845"></path><path d="M0 375L80 383L0 303Z" fill="#99db33" stroke="#99db33"></path><path d="M428 0L290 0L313 80Z" fill="#99db33" stroke="#99db33"></path><path d="M79 78L110 169L163 170Z" fill="#187845" stroke="#187845"></path><path d="M79 78L163 170L224 91Z" fill="#bbed24" stroke="#bbed24"></path><path d="M163 170L110 169L133 317Z" fill="#076440" stroke="#076440"></path><path d="M732 100L662 0L579 61Z" fill="#bbed24" stroke="#bbed24"></path><path d="M770 184L807 125L732 100Z" fill="#bbed24" stroke="#bbed24"></path><path d="M732 100L761 0L662 0Z" fill="#99db33" stroke="#99db33"></path><path d="M900 191L770 184L778 267Z" fill="#5eb443" stroke="#5eb443"></path><path d="M290 0L230 0L224 91Z" fill="#99db33" stroke="#99db33"></path><path d="M0 478L111 600L130 476Z" fill="#2d8c47" stroke="#2d8c47"></path><path d="M130 476L111 600L187 496Z" fill="#7ac73d" stroke="#7ac73d"></path><path d="M900 466L822 408L765 491Z" fill="#44a046" stroke="#44a046"></path><path d="M822 408L900 367L778 267Z" fill="#e0ff00" stroke="#e0ff00"></path><path d="M706 600L824 600L765 491Z" fill="#076440" stroke="#076440"></path><path d="M900 367L900 288L778 267Z" fill="#025139" stroke="#025139"></path><path d="M0 303L80 383L133 317Z" fill="#e0ff00" stroke="#e0ff00"></path><path d="M80 383L0 478L130 476Z" fill="#025139" stroke="#025139"></path><path d="M824 600L900 466L765 491Z" fill="#076440" stroke="#076440"></path><path d="M0 205L133 317L110 169Z" fill="#076440" stroke="#076440"></path><path d="M0 205L0 303L133 317Z" fill="#025139" stroke="#025139"></path><path d="M900 75L761 0L807 125Z" fill="#187845" stroke="#187845"></path><path d="M807 125L761 0L732 100Z" fill="#44a046" stroke="#44a046"></path><path d="M114 0L79 78L224 91Z" fill="#025139" stroke="#025139"></path><path d="M900 288L900 191L778 267Z" fill="#7ac73d" stroke="#7ac73d"></path><path d="M0 375L0 478L80 383Z" fill="#5eb443" stroke="#5eb443"></path><path d="M0 93L0 205L110 169Z" fill="#076440" stroke="#076440"></path><path d="M230 0L114 0L224 91Z" fill="#99db33" stroke="#99db33"></path><path d="M79 78L0 93L110 169Z" fill="#bbed24" stroke="#bbed24"></path><path d="M824 600L900 600L900 466Z" fill="#7ac73d" stroke="#7ac73d"></path><path d="M900 191L900 75L807 125Z" fill="#44a046" stroke="#44a046"></path><path d="M0 0L0 93L79 78Z" fill="#5eb443" stroke="#5eb443"></path><path d="M0 478L0 600L111 600Z" fill="#187845" stroke="#187845"></path><path d="M900 75L900 0L761 0Z" fill="#e0ff00" stroke="#e0ff00"></path><path d="M114 0L0 0L79 78Z" fill="#e0ff00" stroke="#e0ff00"></path></g></svg>